<?xml version="1.0" encoding="UTF-8"?>
<svg version="1.1" viewBox="0 0 2048 520" width="4096" height="1041" xmlns="http://www.w3.org/2000/svg">
<path transform="translate(351)" d="m0 0h50l39 3 29 4 35 7 33 9 29 10 28 12 24 12 17 10 15 10 16 12 11 9 13 12 11 11 9 11 11 15 8 13 8 15 8 21 5 20 2 15v46l-3 22-6 24-8 21-10 20-11 17-10 13-11 13-19 19-11 9-16 12-17 11-16 9-17 9-26 11-22 8-28 8-26 6-35 6-40 4-18 1h-52l-31-2-33-4-29-5-29-7-27-8-27-10-26-12-17-9-21-13-19-14-14-12-15-14-7-8-11-13-14-21-10-18-10-25-6-22-3-18-1-10v-42l3-21 6-21 6-15 11-21 8-12 10-13 9-10 7-8 8-8 8-7 16-13 27-18 21-12 29-14 31-12 29-9 38-9 37-6 31-3z" fill="#2C3177"/>
<path transform="translate(16,230)" d="m0 0 55 13 40 12 29 11 17 8 14 9-2 16 2 11 5 9 4 5 9 6 10 3 13 1 5 12 6 8 7 6 10 5 9 2h12l7 11 10 7 10 4 5 1h8l8-1 6 10 7 7 8 5 10 3h17l11-4 9-6 4-1 17 7 9 2h17l13-4 6-4 4-5h19l11-4 11-8 7-11 2-5h14l10-3 12-7 7-8 4-9 2-11h15l12-4 10-7 6-9 2-6v-16l-3-8v-3l34-13 36-12 30-9 34-9 15-3 1 2v19l-3 22-6 21-7 16-9 17-12 17-11 13-22 22-14 11-15 11-21 13-27 14-25 11-25 9-28 8-30 7-30 5-40 4-22 1h-29l-35-2-34-4-28-5-30-7-29-9-27-10-26-12-24-13-24-16-13-10-15-13-16-16-11-14-10-14-11-20-8-21-5-21-1-7v-32z" fill="#F7D032"/>
<path transform="translate(93,101)" d="m0 0 6 1 24 9 34 11 30 8 21 4 10 1h19l20-4 22-6h5l-6 7-15 16-11 12-8 10-1 2v10l4 6 9 6 13 4 5 1h21l13-4 14-8 14-11 20-15 17-10 12-4h16l11 4 12 7 14 11 13 11 11 9 14 12 13 11 28 24 30 26 10 9 11 9 7 7 3 7v11l-5 8-10 6-4 1h-11l-10-5-9-9-8-7-12-11-8-7-10-9-9-7h-5l-1 5 7 8 45 45 4 8v8l-4 8-8 7-10 4h-11l-8-4-10-9-21-21-11-9-3-2-5 1 1 6 14 15 7 8 9 10 8 10 1 2v8l-4 6-6 5-5 2-10 1-8-2-14-14-8-7-13-12-7-3-2 1 1 7 8 8 7 8 12 13 3 4-1 4-8 4-4 1h-14l-15-5-6-3 3-10v-17l-4-11-6-9-8-7-11-5-14-2-2-17-4-10-8-9-10-5-12-3h-8l-10 1-6-8-8-6-10-4-6-1h-12l-10 3-6 3-4-1-7-6-9-4-5-1h-10l-10 3-8 5-4 1-21-12-28-12-36-12-41-11-28-7-6-2 1-8 7-21 8-17 12-19 13-16 9-10 13-13 11-9z" fill="#FEFEFE"/>
<path transform="translate(386,91)" d="m0 0h14l22 3 19 5 22 8 15 7 27 9 23 5 19 2h24l26-3 25-6 24-8 17-7 5 2 26 26 13 17 11 18 8 16 7 20 2 8v6l-44 11-36 11-38 13-32 13-8 3-10-9-11-9-12-11-11-9-11-10-11-9-10-9-11-9-15-13-13-11-11-9-15-12-15-10-13-6-10-2h-10l-16 4-14 7-17 12-16 13-17 12-11 5-14 2-16-2-10-5-1-4 9-10 15-16 12-13 11-11 11-9 14-10 17-8 17-5 12-2z" fill="#FEFEFE"/>
<path transform="translate(368,14)" d="m0 0h16l27 1 33 3 33 5 36 8 27 8 28 10 27 12 23 12 22 14 11 8-1 2-24 9-22 6-24 4-13 1h-15l-21-2-24-5-23-8-25-11-22-7-18-4-15-2h-22l-22 3-15 4-15 6-16 9-10 8-22 3-41 10-6 1h-17l-23-4-31-8-39-12-17-6 1-3 19-12 18-10 16-8 20-9 30-11 31-9 33-7 33-5 33-3z" fill="#F7D032"/>
<path transform="translate(928,66)" d="m0 0h23l12 3 13 7 10 9h4l7-7 14-8 14-4h23l15 4 13 7 10 9 7 10 6 14 3 16v105h-38l-1-100-3-12-6-8-7-4-4-1h-14l-10 4-5 4-6 12-1 8-1 97h-38l-1-104-4-11-4-5-8-4-3-1h-14l-9 3-8 7-4 9-1 5-1 101h-38v-106l4-17 7-14 9-11 12-9 14-6z" fill="#2C3177"/>
<path transform="translate(1857,16)" d="m0 0h16v155l-3 16-5 12-7 11-9 9-11 7-13 5-15 3h-27l-19-4-16-7-10-8-9-12-7-15-4-17-1-21 2-21 4-16 5-12 8-12 11-11 12-7 13-4 7-1h14l13 3 11 6 9 8 3 4 1-44 3-12 8-9 8-4zm-70 87-10 4-8 8-6 13-2 9-1 9v9l2 16 4 11 5 8 8 7 9 3h15l9-3 8-6 7-11 4-14 1-17-2-16-4-11-5-8-9-8-8-3z" fill="#2C3177"/>
<path transform="translate(1189,66)" d="m0 0h18l17 3 13 5 10 6 10 9 9 12 7 16 3 13 1 11v21h-116l3 15 4 8 6 7 12 6 4 1h20l10-3 9-8h45l-4 10-7 10-6 7-12 9-12 6-16 4-8 1h-19l-16-3-13-5-11-6-10-8-8-9-8-16-4-15-1-8v-27l3-17 6-16 7-11 13-13 14-8 10-4zm7 34-12 2-9 5-7 8-5 11-1 8h72l-2-11-5-10-9-8-11-4z" fill="#2C3177"/>
<path transform="translate(1954,65)" d="m0 0h25l16 3 12 5 10 6 9 8 8 11 8 16 4 13 2 12v22l-3 16-6 16-7 12-11 12-9 7-13 6-11 3-20 2-17-1-17-4-16-8-10-9-7-8-8-14-5-14-3-18v-18l3-18 6-16 9-15 8-9 11-8 16-7zm6 35-10 3-9 6-7 10-4 11-2 16 1 18 3 12 5 10 8 8 8 4 10 2 13-1 10-4 8-7 6-10 4-16v-25l-3-13-6-11-8-8-9-4-5-1z" fill="#2C3177"/>
<path transform="translate(1639,311)" d="m0 0h23l15 3 13 5 11 7 7 6 9 12 6 12 4 14 2 17v18h-115l3 16 5 10 8 7 9 4 5 1h17l10-3 8-6 2-3h44l-1 6-6 11-12 13-10 7-13 6-12 3-7 1h-23l-15-3-15-6-11-7-10-9-6-7-6-12-4-13-2-15v-21l3-19 6-16 7-11 9-10 13-9 11-5 11-3zm3 34-11 4-8 7-7 14-1 8h71l-2-12-5-9-8-7-9-4-4-1z" fill="#2C3177"/>
<path transform="translate(1622,66)" d="m0 0h30l15 3 14 5 10 6 8 9 4 10 2 13v65l-2 14-5 13-7 9-9 8-14 7-14 4-13 2h-34l-14-3-12-6-8-7-6-10-3-9-1-6v-12l3-14 5-10 7-8 11-7 14-5 22-4 22-3 9-3 5-5 1-2v-9l-3-5-6-4-10-2h-13l-10 3-6 5-4 9-1 4h-41l2-14 5-13 7-10 8-7 14-7 11-3zm39 86-9 4-29 6-12 6-5 7-1 4v10l3 7 5 5 9 3h8l12-3 8-4 6-5 5-9 2-10v-21z" fill="#2C3177"/>
<path transform="translate(1466,66)" d="m0 0h19l19 3 16 6 11 7 8 9 7 14 4 15v7h-45l-3-10-6-9-10-5-13-1-10 2-9 6-6 8-4 12-2 16v11l2 16 4 11 7 9 8 4 9 2 14-1 10-5 6-10 3-12h45l-1 10-5 13-6 11-12 13-10 7-11 5-16 4-17 1-20-2-16-5-11-6-11-10-9-14-5-12-4-17-1-20 2-20 4-15 8-16 8-10 10-9 16-8 15-4z" fill="#2C3177"/>
<path transform="translate(1321,315)" d="m0 0h44l7 24 24 84 1 1 16-56 12-41 4-6 5-4 6-2h35l-9 27-34 96-13 36h-43l-10-28-20-57-21-60-4-11z" fill="#2C3177"/>
<path transform="translate(199,275)" d="m0 0h12l8 4 6 7 3 8 1 5 6-8 9-7 9-3h11l11 4 7 8 4 13 4-1 8-5 3-1h12l10 4 7 6 3 7 1 5-1 14-3 11 7-1 7-2h9l11 4 8 7 5 10 1 4v9l-4 11-7 8-9 5-4 1h-11l-9-3-10-9-4-8-2-11-4-1-8 6-3 1h-11l-9-4-7-5-4-7-1-12-5 1-9 4h-10l-12-6-7-8-4-11v-14h-4l-8 5-8 1-8-2-9-6-5-10v-11l4-8 8-7z" fill="#FEFEFE"/>
<path transform="translate(1221,260)" d="m0 0h10v214h-39v-190l3-8 6-8 12-6z" fill="#2C3177"/>
<path transform="translate(1373,66)" d="m0 0h15l1 1v42h-17l-14 3-8 5-6 7-4 13-1 10-1 84h-41l-1-1v-89l3-19 5-13 6-11 9-10 9-8 16-8 14-4z" fill="#2C3177"/>
<path transform="translate(1549,311)" d="m0 0h19v42l-4 1h-16l-12 3-9 6-5 7-3 10-1 8-1 86h-42v-92l3-16 5-13 7-12 11-12 14-9 13-5 13-3z" fill="#2C3177"/>
<path transform="translate(1264,315)" d="m0 0h42v159h-42z" fill="#2C3177"/>
<path transform="translate(1264,259)" d="m0 0h41l1 1v41h-42z" fill="#2C3177"/>
</svg>
