<?xml version="1.0" encoding="UTF-8"?>
<svg version="1.1" viewBox="0 0 3300 1476" width="825" height="369" xmlns="http://www.w3.org/2000/svg">
<path transform="translate(1513)" d="m0 0h8v2l26 14 27 18 17 13 14 11 13 11 11 9 9 9 9 11 8 10 9 15 8 20 3 13 1 11v27l-2 17-6 23-8 18-8 15-15 24-31 51-26 44-14 24-15 26-9 16-9 15-6 11-15 27-12 21-28 50-13 24-10 18-36 66-13 24-14 26-12 22-11 21-10 19-12 22-28 56-13 31-13 37-6 21-4 25 1 13 4 10 8 4h15l15-3 22-8 15-8 12-8 18-14 13-12 11-10 7-8 7-7 9-11 9-10 11-14 12-15 8-12 5-10 12-36 18-53 13-35 12-30 16-39 17-43 13-35 7-22 6-25 3-19 1-12v-20l-2-13-3-9v-4l8 1 35 10 27 10 18 8 17 10 12 9 13 11 10 10 10 13 8 15 5 17 1 7v20l-4 17-8 20-8 14-9 16-15 26-17 28-10 16-11 17-15 24-12 19-15 24-7 11-5 9-11 18-8 13-12 23-12 28-5 19-1 6v19l4 13 6 9 7 5 15 5 5 1 16-1 15-4 12-5 16-9 10-8 14-12 24-24 7-9h2l2-4 14-17 13-18 11-16 12-19 11-19 7-14 10-19 8-15 9-19 19-48 12-29 13-30 14-33 14-37 6-15 7-23 5-30 1-11v-31l-3-15-1-7 7 1 29 8 23 8 21 9 17 9 12 8 10 8 10 9 9 9 10 13 6 10 6 15 3 12 1 16-2 13-6 20-8 18-9 16-15 24-14 22-11 18-11 17-10 16-12 19-60 96-12 20-15 24-14 23-8 17-5 14v9l3 5 6 4h20l11-3 20-8 21-11 21-14 14-11 12-11 20-20 7-8 12-14 13-17 13-18 2-5 1-44 4-35 5-28 7-27 9-25 9-21 10-18 10-15 11-16 13-18 7-9 13-17 9-11 14-15 10-10 11-9 17-13 17-11 21-12 23-11 27-9 19-4 21-2h10l20 2 19 4 20 6 21 9 17 9 12 8 13 10 13 11 7 7 3 1 1-5 7-18 4-16 1-8v-17l-1-13 2-1h33l25 3 27 6 16 5 19 8 16 10 14 11 10 10 6 10 3 12-1 16-6 18-5 11-16 39-8 19-23 54-34 78-7 14-13 28-16 33-38 76-10 19-12 23-8 15 16-1 16-5 17-8 12-8 13-10 14-12 8-7 12-11 27-27 7-8 24-28 10-13 13-17 12-17 12-18 10-17 10-19 5-1 14 12 8 9 8 13 5 12 4 16 1 7v15l-3 16-4 12-11 21-9 12-11 13-14 14h-2v2l-8 7-13 12-8 7-14 12-13 11-11 9-14 11-16 13-16 12-19 14-18 12-17 10-27 14-33 14-42 16-25 9-10 16-12 20-12 19-14 22-27 40-10 14-12 17-8 11-12 16-13 17-13 16-8 10-12 14-10 11-1 2h-2l-2 4-26 26h-2v2h-2v2l-8 7-13 11-11 9-19 14-15 10-17 9-19 8-23 7-23 5h-50l-30-7-17-6-16-8-11-7-12-11-13-13-9-14-5-11-3-12-1-7v-23l3-18 5-16 6-15 6-10 6-11 11-16 7-9 5-7h2l2-4 16-17 13-12 13-11 16-12 30-20 21-12 24-11 36-14 38-13 42-13 66-22 36-13 3-2 6-15 13-28 8-17 7-15 6-13-1-1-7 7-8 11-16 21-11 13-7 8-12 11-16 8-5 2-6 1h-27l-16-3-23-8-25-13-16-11-14-11-3-2v-2l-4-2-10-10-9-11-8-11-8-14-7-14v-3l-8 7-9 9-8 7-12 11-11 9-4 2v2l-11 9-13 11-19 14-20 13-25 14-26 11-23 7-19 4-12 1h-19l-18-3-13-5-14-9-11-11-8-13-5-11-4 1-9 8-15 11-13 8-16 8-18 7-19 5-14 3-26 3h-20l-19-2-32-3-34-14-14-8-14-11-17-17-10-15-6-12-4 1-9 8-16 12-21 14-15 9-18 10-22 10-18 7-22 6-29 6-26 1-19-2-19-6-16-8-14-10-10-10-11-15-8-14-5-16-3-29-11 10-20 15-27 18-15 9-27 15-27 13-26 10-27 9-28 7-31 6-29 4-24 2h-39l-28-3-32-6-23-6-23-7-32-12-15-6-15 29-18 37-14 32-20 49-10 28-10 30-10 37-4 19-3 28 1 19 3 17 1 7-9-1-21-7-15-8-13-10-13-12-8-10-10-16-8-18-5-19-2-19v-12l2-24 2-16 2-22 6-31 8-30 6-20-2-4-17-12-18-10-19-8-24-8-36-9-38-7-20-2h-13l-52 5-62 8-56 8-38 7-9 2-10-1-18-5-16-7-12-8-11-9-10-11-10-15-7-15-4-16-1-12h-2v-28l12-6 36-16 36-17 34-16 34-17 22-12 27-15 29-17 21-13 19-12 21-14 20-14 19-14 17-13 25-20 11-9 14-12 10-9 8-7 16-15 17-17 7-8 13-14 9-11 14-17 14-19 4-6-19 9-36 17-30 13-35 14-42 15-37 12-30 8-25 5-20 3h-33l-21-4-15-6-12-7-12-11-7-10-11-21-7-21-4-17-3-20v-61l5-32 1-2 5 2 17 8 26 10 25 6 41 7 47 6 11 1h49l38-4 46-7 38-7 86-18 25-4 23-2h38l8 3 11 9 7 10 4 11 3 15 1 18-2 18-5 13-8 15-11 14-11 12-9 10-14 14-7 8-104 104-8 7-29 29-8 7-10 10-8 7-16 15-10 9-8 7-10 9-11 9-10 9h-2v2l-14 11-10 9-14 11-8 7-27 21-12 9-17 12-17 11-6 4 40-10 58-10 24-3 13-1h34l21 2 19 4 17 6 16 9 10 8 7 7 11 15 6 11 6 15 3 13 2 22 10-29 11-27 12-31 8-19 18-44 12-29 16-39 16-38 17-41 11-27 14-35 11-34 28-86 6-23 3-16 2-20v-19l-2-19-4-20v-5l1-1 25-2h31l27 3 26 5 16 5 12 5 16 10 11 11 6 10 4 16 1 8-1 21-4 28-6 29 11-15 13-18 12-14 20-20 17-13 19-12 17-8 21-7 14-3 21-2 22 1 20 3 21 7 16 8 12 7 14 11 7 7 12 16 9 16 9 19 5 15 3 15 1 10v21l-2 20-4 22-6 21-8 22-12 27-9 16-11 18-11 16-9 13-13 18-13 17-11 14-14 17-13 15-11 12-7 8-14 15-16 17-10 10h-2v2l-8 7-7 7-8 7-14 12-12 10-3 3 29-12 25-12 20-11 20-12 22-14 11-8 19-14 22-18 15-13 26-24 13-13 9-11 8-9 5-9 4-11 12-39 16-48 20-55 15-39 20-51 30-72 24-56 26-60 12-27 18-41 14-31 44-99 19-43 19-45 16-41 10-30 3-16v-25zm981 553-21 7-22 10-21 12-26 14-22 14-14 10-16 12-10 8-13 11-8 7-10 9-21 21-13 17-10 15-11 18-10 19-13 29-11 27-12 36-6 24-4 23-1 10v43l3 14 4 9 4 6 7 6 6 3 13 1 12-3 14-8 14-11 13-12 13-13 7-8 11-13 13-17 8-11 12-18 10-16 14-24 12-21 11-19 7-14 9-17 13-28 11-25 15-38 10-29 10-27 14-43 6-17zm-1616 55m115 2-12 4-16 8-14 8-13 10-28 28-11 14-14 18-13 19-18 27-14 22-11 17-10 16-12 19-12 20-10 17-14 24-13 23-13 24-10 18-13 25-10 19 3 3 20 6h30l18-4 21-7 19-9 22-13 12-8 13-11 8-7 14-14 9-11 10-12 12-17 14-21 9-15 11-19 7-12 8-16 15-32 13-32 10-27 10-34 5-22 1-7v-23l-5-8-8-6-5-2zm1272 544-36 12-31 12-25 11-27 13-23 13-16 10-24 16-18 13-16 13-10 8-10 9-5 4v2l-4 2-8 8v2h-2l-7 8-10 11-14 19-9 15-7 17-4 13-1 13 3 9 9 10 6 4 4 1h17l19-7 23-12 15-10 14-10 16-13 13-11 13-12 12-11 22-22 7-8 13-14 7-8 9-10 12-14 13-15 7-9 12-15v-2h2l15-20 7-10 10-15 9-16 1-4z"/>
<path transform="translate(2984,734)" d="m0 0h35l28 2 16 4 13 7 10 9 6 10 4 12 1 5 5-2 15-11 13-8 10-5 13-4 8-1h16l23 3 17 5 16 8 10 8 7 8 5 9 3 9 1 5v18l-4 14-4 9-7 12-16 25-12 19-30 48-11 18-12 21-8 16-6 16-2 11 2 6 4 1 16-5 16-8 14-9 14-11 19-19 9-11 11-15 11-19 8-16 3-4 4 1 4 3v2l4 2 10 14 4 7v20l-2 1-5 12-7 11-8 11-9 10-8 10-8 7-3 3h-2v2l-14 11-15 11-21 12-15 7-18 6-23 4-11-1-11-3-9-5-5-4-6-8-6-12-3-14v-23l6-31 8-29 26-78 10-34 4-19v-24l-5-10-6-4-8 1-10 5-4 4h-2v2h-2v2h-2l-2 4-7 8-12 17-12 22-10 16-12 19-8 13-17 28-13 22-28 49-12 23-8 19-8 27-3 18-7-3-12-6-11-9-9-13-4-9v-4l-11 7-12 9-23 13-18 8-16 5-10 2h-21l-13-4-9-6-8-9-6-12-3-12v-20l4-23 8-32 14-45 16-49 11-30 10-27 7-26 5-23v-29l9 1 32 9 13 6 12 7 10 8 8 8 6 10 2 5 1 9v12l-2 11-8 16-8 14-15 24-17 28-15 25-13 23-10 18-16 32-6 16-2 12 1 4 5 1 21-6 19-10 16-11 13-11 7-7 6-5 7-8 4-5 7-16 14-38 12-29 14-31 11-26 11-30 7-21 1-4v-26l-4-13-5-9z"/>
<path transform="translate(2886,637)" d="m0 0 11 1 17 4 15 6 16 9 11 9 10 11 7 14 1 4v9l-4 13-14 29-8 18-3-1-5-5-10-7-12-7-24-11-11-7-9-8-3-6-1-5v-10l4-14 11-38z"/>
<path transform="translate(2687,1020)" d="m0 0h13l31 10 7 3-2 11-6 16-7 12-7 7-10 7-7 3-10 2-9-3-20-10-9-6 1-4 8-10 7-12 7-14 6-8z"/>
<path transform="translate(2e3 1475)" d="m0 0 4 1z"/>
<path transform="translate(2336,991)" d="m0 0"/>
<path transform="translate(2335,993)" d="m0 0"/>
</svg>
